<svg width="186" height="24" viewBox="0 0 186 24" fill="none" xmlns="http://www.w3.org/2000/svg">
<path d="M12 7.75C11.3787 7.75 10.875 8.25368 10.875 8.875C10.875 9.28921 10.5392 9.625 10.125 9.625C9.71079 9.625 9.375 9.28921 9.375 8.875C9.375 7.42525 10.5503 6.25 12 6.25C13.4497 6.25 14.625 7.42525 14.625 8.875C14.625 9.83834 14.1056 10.6796 13.3353 11.1354C13.1385 11.2518 12.9761 11.3789 12.8703 11.5036C12.7675 11.6246 12.75 11.7036 12.75 11.75V13C12.75 13.4142 12.4142 13.75 12 13.75C11.5858 13.75 11.25 13.4142 11.25 13V11.75C11.25 11.2441 11.4715 10.8336 11.7266 10.533C11.9786 10.236 12.2929 10.0092 12.5715 9.84439C12.9044 9.64739 13.125 9.28655 13.125 8.875C13.125 8.25368 12.6213 7.75 12 7.75Z" fill="white"/>
<path d="M12 17C12.5523 17 13 16.5523 13 16C13 15.4477 12.5523 15 12 15C11.4477 15 11 15.4477 11 16C11 16.5523 11.4477 17 12 17Z" fill="white"/>
<path fill-rule="evenodd" clip-rule="evenodd" d="M11.9426 1.25H12.0574C14.3658 1.24999 16.1748 1.24998 17.5863 1.43975C19.031 1.63399 20.1711 2.03933 21.0659 2.93414C21.9607 3.82895 22.366 4.96897 22.5603 6.41371C22.75 7.82519 22.75 9.63423 22.75 11.9426V12.0574C22.75 14.3658 22.75 16.1748 22.5603 17.5863C22.366 19.031 21.9607 20.1711 21.0659 21.0659C20.1711 21.9607 19.031 22.366 17.5863 22.5603C16.1748 22.75 14.3658 22.75 12.0574 22.75H11.9426C9.63423 22.75 7.82519 22.75 6.41371 22.5603C4.96897 22.366 3.82895 21.9607 2.93414 21.0659C2.03933 20.1711 1.63399 19.031 1.43975 17.5863C1.24998 16.1748 1.24999 14.3658 1.25 12.0574V11.9426C1.24999 9.63424 1.24998 7.82519 1.43975 6.41371C1.63399 4.96897 2.03933 3.82895 2.93414 2.93414C3.82895 2.03933 4.96897 1.63399 6.41371 1.43975C7.82519 1.24998 9.63424 1.24999 11.9426 1.25ZM6.61358 2.92637C5.33517 3.09825 4.56445 3.42514 3.9948 3.9948C3.42514 4.56445 3.09825 5.33517 2.92637 6.61358C2.75159 7.91356 2.75 9.62177 2.75 12C2.75 14.3782 2.75159 16.0864 2.92637 17.3864C3.09825 18.6648 3.42514 19.4355 3.9948 20.0052C4.56445 20.5749 5.33517 20.9018 6.61358 21.0736C7.91356 21.2484 9.62177 21.25 12 21.25C14.3782 21.25 16.0864 21.2484 17.3864 21.0736C18.6648 20.9018 19.4355 20.5749 20.0052 20.0052C20.5749 19.4355 20.9018 18.6648 21.0736 17.3864C21.2484 16.0864 21.25 14.3782 21.25 12C21.25 9.62177 21.2484 7.91356 21.0736 6.61358C20.9018 5.33517 20.5749 4.56445 20.0052 3.9948C19.4355 3.42514 18.6648 3.09825 17.3864 2.92637C16.0864 2.75159 14.3782 2.75 12 2.75C9.62177 2.75 7.91356 2.75159 6.61358 2.92637Z" fill="white"/>
<path d="M42.544 18.5H40.4474L45.1584 5.40909H47.4403L52.1513 18.5H50.0547L46.3537 7.78693H46.2514L42.544 18.5ZM42.8956 13.3736H49.6967V15.0355H42.8956V13.3736ZM61.1752 11.0788L59.443 11.3857C59.3706 11.1641 59.2555 10.9531 59.0978 10.7528C58.9444 10.5526 58.7356 10.3885 58.4714 10.2607C58.2072 10.1328 57.877 10.0689 57.4806 10.0689C56.9395 10.0689 56.4877 10.1903 56.1255 10.4332C55.7633 10.6719 55.5822 10.9808 55.5822 11.3601C55.5822 11.6882 55.7037 11.9524 55.9466 12.1527C56.1895 12.353 56.5815 12.517 57.1227 12.6449L58.6824 13.0028C59.5858 13.2116 60.2591 13.5334 60.7022 13.968C61.1454 14.4027 61.367 14.9673 61.367 15.6619C61.367 16.25 61.1966 16.7741 60.8556 17.2344C60.519 17.6903 60.0481 18.0483 59.443 18.3082C58.8422 18.5682 58.1454 18.6982 57.3528 18.6982C56.2534 18.6982 55.3564 18.4638 54.6618 17.995C53.9672 17.522 53.541 16.8509 53.3833 15.9815L55.2306 15.7003C55.3457 16.1818 55.5822 16.5462 55.9402 16.7933C56.2981 17.0362 56.7647 17.1577 57.34 17.1577C57.9664 17.1577 58.4672 17.0277 58.8422 16.7678C59.2172 16.5036 59.4047 16.1818 59.4047 15.8026C59.4047 15.4957 59.2896 15.2379 59.0595 15.0291C58.8336 14.8203 58.4863 14.6626 58.0176 14.5561L56.3556 14.1918C55.4395 13.983 54.7619 13.6506 54.323 13.1946C53.8883 12.7386 53.671 12.1612 53.671 11.4624C53.671 10.8828 53.8329 10.3757 54.1568 9.94105C54.4806 9.50639 54.9281 9.16761 55.4991 8.92472C56.0701 8.67756 56.7243 8.55398 57.4615 8.55398C58.5225 8.55398 59.3578 8.78409 59.9672 9.24432C60.5765 9.70028 60.9792 10.3118 61.1752 11.0788ZM65.2262 15.1697L65.2134 12.8366H65.5458L69.4577 8.68182H71.7461L67.2844 13.4119H66.984L65.2262 15.1697ZM63.4684 18.5V5.40909H65.3796V18.5H63.4684ZM69.6687 18.5L66.1531 13.8338L67.4698 12.4979L72.0146 18.5H69.6687ZM81.1088 18.7173C80.4867 18.7173 79.9242 18.6023 79.4213 18.3722C78.9185 18.1378 78.5201 17.799 78.226 17.3558C77.9363 16.9126 77.7914 16.3693 77.7914 15.7259C77.7914 15.1719 77.8979 14.7159 78.111 14.358C78.324 14 78.6117 13.7166 78.9739 13.5078C79.3361 13.299 79.7409 13.1413 80.1884 13.0348C80.6358 12.9283 81.0918 12.8473 81.5563 12.7919C82.1444 12.7237 82.6216 12.6683 82.9881 12.6257C83.3546 12.5788 83.6209 12.5043 83.7871 12.402C83.9533 12.2997 84.0364 12.1335 84.0364 11.9034V11.8587C84.0364 11.3004 83.8787 10.8679 83.5634 10.5611C83.2523 10.2543 82.7878 10.1009 82.1699 10.1009C81.5265 10.1009 81.0194 10.2436 80.6486 10.5291C80.2821 10.8104 80.0286 11.1236 79.888 11.4688L78.0918 11.0597C78.3049 10.4631 78.6159 9.98153 79.025 9.61506C79.4384 9.24432 79.9135 8.97585 80.4505 8.80966C80.9874 8.6392 81.552 8.55398 82.1444 8.55398C82.5364 8.55398 82.9519 8.60085 83.3908 8.6946C83.834 8.78409 84.2473 8.95028 84.6309 9.19318C85.0186 9.43608 85.3361 9.78338 85.5833 10.2351C85.8304 10.6825 85.954 11.2642 85.954 11.9801V18.5H84.0875V17.1577H84.0108C83.8873 17.4048 83.7019 17.6477 83.4547 17.8864C83.2076 18.125 82.8901 18.3232 82.5023 18.4808C82.1145 18.6385 81.65 18.7173 81.1088 18.7173ZM81.5243 17.1832C82.0527 17.1832 82.5044 17.0788 82.8794 16.87C83.2587 16.6612 83.5463 16.3885 83.7424 16.0518C83.9426 15.7109 84.0428 15.3466 84.0428 14.9588V13.6932C83.9746 13.7614 83.8425 13.8253 83.6465 13.8849C83.4547 13.9403 83.2353 13.9893 82.9881 14.032C82.7409 14.0703 82.5002 14.1065 82.2658 14.1406C82.0314 14.1705 81.8354 14.196 81.6777 14.2173C81.307 14.2642 80.9682 14.343 80.6614 14.4538C80.3588 14.5646 80.1159 14.7244 79.9327 14.9332C79.7537 15.1378 79.6642 15.4105 79.6642 15.7514C79.6642 16.2244 79.839 16.5824 80.1884 16.8253C80.5378 17.0639 80.9831 17.1832 81.5243 17.1832ZM98.2299 14.2557H100.173L101.541 16.0391L102.187 16.8317L104.366 19.6761H102.346L100.889 17.7777L100.39 17.0874L98.2299 14.2557ZM104.788 11.9545C104.788 13.3523 104.532 14.554 104.021 15.5597C103.51 16.5611 102.809 17.3324 101.918 17.8736C101.032 18.4105 100.024 18.679 98.8947 18.679C97.7612 18.679 96.7491 18.4105 95.8585 17.8736C94.9721 17.3324 94.2733 16.5589 93.7619 15.5533C93.2505 14.5476 92.9949 13.348 92.9949 11.9545C92.9949 10.5568 93.2505 9.35724 93.7619 8.35582C94.2733 7.35014 94.9721 6.57883 95.8585 6.0419C96.7491 5.50071 97.7612 5.23011 98.8947 5.23011C100.024 5.23011 101.032 5.50071 101.918 6.0419C102.809 6.57883 103.51 7.35014 104.021 8.35582C104.532 9.35724 104.788 10.5568 104.788 11.9545ZM102.832 11.9545C102.832 10.8892 102.66 9.99219 102.314 9.26349C101.974 8.53054 101.505 7.97656 100.908 7.60156C100.316 7.2223 99.6447 7.03267 98.8947 7.03267C98.1404 7.03267 97.4672 7.2223 96.8748 7.60156C96.2825 7.97656 95.8137 8.53054 95.4686 9.26349C95.1277 9.99219 94.9572 10.8892 94.9572 11.9545C94.9572 13.0199 95.1277 13.919 95.4686 14.652C95.8137 15.3807 96.2825 15.9347 96.8748 16.3139C97.4672 16.6889 98.1404 16.8764 98.8947 16.8764C99.6447 16.8764 100.316 16.6889 100.908 16.3139C101.505 15.9347 101.974 15.3807 102.314 14.652C102.66 13.919 102.832 13.0199 102.832 11.9545ZM113.317 14.4283V8.68182H115.234V18.5H113.355V16.7997H113.253C113.027 17.3239 112.665 17.7607 112.166 18.1101C111.672 18.4553 111.056 18.6278 110.319 18.6278C109.688 18.6278 109.13 18.4893 108.644 18.2124C108.163 17.9311 107.783 17.5156 107.506 16.9659C107.234 16.4162 107.097 15.7365 107.097 14.9268V8.68182H109.009V14.6967C109.009 15.3658 109.194 15.8984 109.565 16.2947C109.935 16.6911 110.417 16.8892 111.009 16.8892C111.367 16.8892 111.723 16.7997 112.077 16.6207C112.435 16.4418 112.731 16.1712 112.965 15.8089C113.204 15.4467 113.321 14.9865 113.317 14.4283ZM122.034 18.6982C121.067 18.6982 120.233 18.4915 119.535 18.0781C118.84 17.6605 118.303 17.0746 117.924 16.3203C117.549 15.5618 117.361 14.6733 117.361 13.6548C117.361 12.6491 117.549 11.7628 117.924 10.9957C118.303 10.2287 118.831 9.62997 119.509 9.19957C120.191 8.76918 120.988 8.55398 121.9 8.55398C122.454 8.55398 122.991 8.6456 123.51 8.82884C124.03 9.01207 124.497 9.29972 124.91 9.69176C125.324 10.0838 125.65 10.593 125.888 11.2195C126.127 11.8416 126.246 12.598 126.246 13.4886V14.1662H118.442V12.7344H124.373C124.373 12.2315 124.271 11.7862 124.067 11.3984C123.862 11.0064 123.574 10.6974 123.204 10.4716C122.837 10.2457 122.407 10.1328 121.912 10.1328C121.376 10.1328 120.907 10.2649 120.506 10.5291C120.11 10.7891 119.803 11.13 119.586 11.5518C119.373 11.9695 119.266 12.4233 119.266 12.9134V14.032C119.266 14.6882 119.381 15.2464 119.611 15.7067C119.846 16.1669 120.172 16.5185 120.589 16.7614C121.007 17 121.495 17.1193 122.053 17.1193C122.415 17.1193 122.746 17.0682 123.044 16.9659C123.342 16.8594 123.6 16.7017 123.817 16.4929C124.035 16.2841 124.201 16.0263 124.316 15.7195L126.125 16.0455C125.98 16.5781 125.72 17.0447 125.345 17.4453C124.974 17.8416 124.508 18.1506 123.945 18.3722C123.387 18.5895 122.75 18.6982 122.034 18.6982ZM135.724 11.0788L133.992 11.3857C133.919 11.1641 133.804 10.9531 133.647 10.7528C133.493 10.5526 133.284 10.3885 133.02 10.2607C132.756 10.1328 132.426 10.0689 132.029 10.0689C131.488 10.0689 131.037 10.1903 130.674 10.4332C130.312 10.6719 130.131 10.9808 130.131 11.3601C130.131 11.6882 130.252 11.9524 130.495 12.1527C130.738 12.353 131.13 12.517 131.672 12.6449L133.231 13.0028C134.135 13.2116 134.808 13.5334 135.251 13.968C135.694 14.4027 135.916 14.9673 135.916 15.6619C135.916 16.25 135.745 16.7741 135.404 17.2344C135.068 17.6903 134.597 18.0483 133.992 18.3082C133.391 18.5682 132.694 18.6982 131.902 18.6982C130.802 18.6982 129.905 18.4638 129.211 17.995C128.516 17.522 128.09 16.8509 127.932 15.9815L129.779 15.7003C129.895 16.1818 130.131 16.5462 130.489 16.7933C130.847 17.0362 131.314 17.1577 131.889 17.1577C132.515 17.1577 133.016 17.0277 133.391 16.7678C133.766 16.5036 133.953 16.1818 133.953 15.8026C133.953 15.4957 133.838 15.2379 133.608 15.0291C133.382 14.8203 133.035 14.6626 132.566 14.5561L130.904 14.1918C129.988 13.983 129.311 13.6506 128.872 13.1946C128.437 12.7386 128.22 12.1612 128.22 11.4624C128.22 10.8828 128.382 10.3757 128.706 9.94105C129.029 9.50639 129.477 9.16761 130.048 8.92472C130.619 8.67756 131.273 8.55398 132.01 8.55398C133.071 8.55398 133.907 8.78409 134.516 9.24432C135.125 9.70028 135.528 10.3118 135.724 11.0788ZM142.6 8.68182V10.2159H137.237V8.68182H142.6ZM138.676 6.32955H140.587V15.6172C140.587 15.9879 140.642 16.267 140.753 16.4545C140.864 16.6378 141.007 16.7635 141.181 16.8317C141.36 16.8956 141.554 16.9276 141.763 16.9276C141.916 16.9276 142.051 16.9169 142.166 16.8956C142.281 16.8743 142.37 16.8572 142.434 16.8445L142.779 18.4233C142.669 18.4659 142.511 18.5085 142.306 18.5511C142.102 18.598 141.846 18.6236 141.539 18.6278C141.036 18.6364 140.568 18.5469 140.133 18.3594C139.698 18.1719 139.347 17.8821 139.078 17.4901C138.81 17.098 138.676 16.6058 138.676 16.0135V6.32955ZM144.714 18.5V8.68182H146.626V18.5H144.714ZM145.68 7.1669C145.347 7.1669 145.062 7.05611 144.823 6.83452C144.589 6.60866 144.472 6.3402 144.472 6.02912C144.472 5.71378 144.589 5.44531 144.823 5.22372C145.062 4.99787 145.347 4.88494 145.68 4.88494C146.012 4.88494 146.295 4.99787 146.53 5.22372C146.768 5.44531 146.888 5.71378 146.888 6.02912C146.888 6.3402 146.768 6.60866 146.53 6.83452C146.295 7.05611 146.012 7.1669 145.68 7.1669ZM153.333 18.6982C152.412 18.6982 151.609 18.4872 150.923 18.0653C150.237 17.6435 149.704 17.0533 149.325 16.2947C148.945 15.5362 148.756 14.6499 148.756 13.6357C148.756 12.6172 148.945 11.7266 149.325 10.9638C149.704 10.201 150.237 9.60866 150.923 9.18679C151.609 8.76491 152.412 8.55398 153.333 8.55398C154.253 8.55398 155.056 8.76491 155.742 9.18679C156.428 9.60866 156.961 10.201 157.34 10.9638C157.72 11.7266 157.909 12.6172 157.909 13.6357C157.909 14.6499 157.72 15.5362 157.34 16.2947C156.961 17.0533 156.428 17.6435 155.742 18.0653C155.056 18.4872 154.253 18.6982 153.333 18.6982ZM153.339 17.0938C153.936 17.0938 154.43 16.9361 154.822 16.6207C155.214 16.3054 155.504 15.8857 155.691 15.3615C155.883 14.8374 155.979 14.2599 155.979 13.6293C155.979 13.0028 155.883 12.4276 155.691 11.9034C155.504 11.375 155.214 10.951 154.822 10.6314C154.43 10.3118 153.936 10.152 153.339 10.152C152.738 10.152 152.24 10.3118 151.843 10.6314C151.451 10.951 151.159 11.375 150.968 11.9034C150.78 12.4276 150.686 13.0028 150.686 13.6293C150.686 14.2599 150.78 14.8374 150.968 15.3615C151.159 15.8857 151.451 16.3054 151.843 16.6207C152.24 16.9361 152.738 17.0938 153.339 17.0938ZM161.954 12.6705V18.5H160.043V8.68182H161.877V10.2798H161.999C162.224 9.75994 162.578 9.34233 163.06 9.02699C163.545 8.71165 164.157 8.55398 164.894 8.55398C165.563 8.55398 166.149 8.6946 166.652 8.97585C167.155 9.25284 167.545 9.66619 167.822 10.2159C168.099 10.7656 168.237 11.4453 168.237 12.255V18.5H166.326V12.4851C166.326 11.7734 166.141 11.2173 165.77 10.8168C165.399 10.4119 164.89 10.2095 164.242 10.2095C163.799 10.2095 163.405 10.3054 163.06 10.4972C162.719 10.6889 162.448 10.9702 162.248 11.3409C162.052 11.7074 161.954 12.1506 161.954 12.6705Z" fill="white"/>
</svg>
