<svg width="186" height="24" viewBox="0 0 186 24" fill="none" xmlns="http://www.w3.org/2000/svg">
<path fill-rule="evenodd" clip-rule="evenodd" d="M12 1.25C9.37665 1.25 7.25 3.37665 7.25 6C7.25 8.62335 9.37665 10.75 12 10.75C14.6234 10.75 16.75 8.62335 16.75 6C16.75 3.37665 14.6234 1.25 12 1.25ZM8.75 6C8.75 4.20507 10.2051 2.75 12 2.75C13.7949 2.75 15.25 4.20507 15.25 6C15.25 7.79493 13.7949 9.25 12 9.25C10.2051 9.25 8.75 7.79493 8.75 6Z" fill="white"/>
<path d="M18 3.25C17.5858 3.25 17.25 3.58579 17.25 4C17.25 4.41421 17.5858 4.75 18 4.75C19.3765 4.75 20.25 5.65573 20.25 6.5C20.25 7.34427 19.3765 8.25 18 8.25C17.5858 8.25 17.25 8.58579 17.25 9C17.25 9.41421 17.5858 9.75 18 9.75C19.9372 9.75 21.75 8.41715 21.75 6.5C21.75 4.58285 19.9372 3.25 18 3.25Z" fill="white"/>
<path d="M6.75 4C6.75 3.58579 6.41421 3.25 6 3.25C4.06278 3.25 2.25 4.58285 2.25 6.5C2.25 8.41715 4.06278 9.75 6 9.75C6.41421 9.75 6.75 9.41421 6.75 9C6.75 8.58579 6.41421 8.25 6 8.25C4.62351 8.25 3.75 7.34427 3.75 6.5C3.75 5.65573 4.62351 4.75 6 4.75C6.41421 4.75 6.75 4.41421 6.75 4Z" fill="white"/>
<path fill-rule="evenodd" clip-rule="evenodd" d="M12 12.25C10.2157 12.25 8.56645 12.7308 7.34133 13.5475C6.12146 14.3608 5.25 15.5666 5.25 17C5.25 18.4334 6.12146 19.6392 7.34133 20.4525C8.56645 21.2692 10.2157 21.75 12 21.75C13.7843 21.75 15.4335 21.2692 16.6587 20.4525C17.8785 19.6392 18.75 18.4334 18.75 17C18.75 15.5666 17.8785 14.3608 16.6587 13.5475C15.4335 12.7308 13.7843 12.25 12 12.25ZM6.75 17C6.75 16.2242 7.22169 15.4301 8.17338 14.7956C9.11984 14.1646 10.4706 13.75 12 13.75C13.5294 13.75 14.8802 14.1646 15.8266 14.7956C16.7783 15.4301 17.25 16.2242 17.25 17C17.25 17.7758 16.7783 18.5699 15.8266 19.2044C14.8802 19.8354 13.5294 20.25 12 20.25C10.4706 20.25 9.11984 19.8354 8.17338 19.2044C7.22169 18.5699 6.75 17.7758 6.75 17Z" fill="white"/>
<path d="M19.2674 13.8393C19.3561 13.4347 19.7561 13.1787 20.1607 13.2674C21.1225 13.4783 21.9893 13.8593 22.6328 14.3859C23.2758 14.912 23.75 15.6352 23.75 16.5C23.75 17.3648 23.2758 18.088 22.6328 18.6141C21.9893 19.1407 21.1225 19.5217 20.1607 19.7326C19.7561 19.8213 19.3561 19.5653 19.2674 19.1607C19.1787 18.7561 19.4347 18.3561 19.8393 18.2674C20.6317 18.0936 21.2649 17.7952 21.6829 17.4532C22.1014 17.1108 22.25 16.7763 22.25 16.5C22.25 16.2237 22.1014 15.8892 21.6829 15.5468C21.2649 15.2048 20.6317 14.9064 19.8393 14.7326C19.4347 14.6439 19.1787 14.2439 19.2674 13.8393Z" fill="white"/>
<path d="M3.83935 13.2674C4.24395 13.1787 4.64387 13.4347 4.73259 13.8393C4.82132 14.2439 4.56525 14.6439 4.16065 14.7326C3.36829 14.9064 2.73505 15.2048 2.31712 15.5468C1.89863 15.8892 1.75 16.2237 1.75 16.5C1.75 16.7763 1.89863 17.1108 2.31712 17.4532C2.73505 17.7952 3.36829 18.0936 4.16065 18.2674C4.56525 18.3561 4.82132 18.7561 4.73259 19.1607C4.64387 19.5653 4.24395 19.8213 3.83935 19.7326C2.87746 19.5217 2.0107 19.1407 1.36719 18.6141C0.724248 18.088 0.25 17.3648 0.25 16.5C0.25 15.6352 0.724248 14.912 1.36719 14.3859C2.0107 13.8593 2.87746 13.4783 3.83935 13.2674Z" fill="white"/>
<path d="M52.3111 9.66619H50.3168C50.2401 9.24006 50.0973 8.86506 49.8885 8.54119C49.6797 8.21733 49.424 7.94247 49.1214 7.71662C48.8189 7.49077 48.4801 7.32031 48.1051 7.20526C47.7344 7.0902 47.3402 7.03267 46.9226 7.03267C46.1683 7.03267 45.4929 7.2223 44.8963 7.60156C44.304 7.98082 43.8352 8.53693 43.4901 9.26989C43.1491 10.0028 42.9787 10.8977 42.9787 11.9545C42.9787 13.0199 43.1491 13.919 43.4901 14.652C43.8352 15.3849 44.3061 15.9389 44.9027 16.3139C45.4993 16.6889 46.1705 16.8764 46.9162 16.8764C47.3295 16.8764 47.7216 16.821 48.0923 16.7102C48.4673 16.5952 48.8061 16.4268 49.1087 16.2053C49.4112 15.9837 49.6669 15.7131 49.8757 15.3935C50.0888 15.0696 50.2358 14.6989 50.3168 14.2812L52.3111 14.2876C52.2045 14.9311 51.9979 15.5234 51.6911 16.0646C51.3885 16.6016 50.9986 17.0661 50.5213 17.4581C50.0483 17.8459 49.5071 18.1463 48.8977 18.3594C48.2884 18.5724 47.6236 18.679 46.9034 18.679C45.7699 18.679 44.7599 18.4105 43.8736 17.8736C42.9872 17.3324 42.2884 16.5589 41.777 15.5533C41.2699 14.5476 41.0163 13.348 41.0163 11.9545C41.0163 10.5568 41.272 9.35724 41.7834 8.35582C42.2947 7.35014 42.9936 6.57883 43.88 6.0419C44.7663 5.50071 45.7741 5.23011 46.9034 5.23011C47.598 5.23011 48.2457 5.33026 48.8466 5.53054C49.4517 5.72656 49.995 6.01633 50.4766 6.39986C50.9581 6.77912 51.3565 7.24361 51.6719 7.79332C51.9872 8.33878 52.2003 8.96307 52.3111 9.66619ZM58.6568 18.6982C57.7363 18.6982 56.9331 18.4872 56.247 18.0653C55.5609 17.6435 55.0282 17.0533 54.649 16.2947C54.2697 15.5362 54.0801 14.6499 54.0801 13.6357C54.0801 12.6172 54.2697 11.7266 54.649 10.9638C55.0282 10.201 55.5609 9.60866 56.247 9.18679C56.9331 8.76491 57.7363 8.55398 58.6568 8.55398C59.5772 8.55398 60.3805 8.76491 61.0666 9.18679C61.7527 9.60866 62.2853 10.201 62.6646 10.9638C63.0439 11.7266 63.2335 12.6172 63.2335 13.6357C63.2335 14.6499 63.0439 15.5362 62.6646 16.2947C62.2853 17.0533 61.7527 17.6435 61.0666 18.0653C60.3805 18.4872 59.5772 18.6982 58.6568 18.6982ZM58.6632 17.0938C59.2598 17.0938 59.7541 16.9361 60.1461 16.6207C60.5382 16.3054 60.8279 15.8857 61.0154 15.3615C61.2072 14.8374 61.3031 14.2599 61.3031 13.6293C61.3031 13.0028 61.2072 12.4276 61.0154 11.9034C60.8279 11.375 60.5382 10.951 60.1461 10.6314C59.7541 10.3118 59.2598 10.152 58.6632 10.152C58.0623 10.152 57.5637 10.3118 57.1674 10.6314C56.7754 10.951 56.4835 11.375 56.2917 11.9034C56.1042 12.4276 56.0105 13.0028 56.0105 13.6293C56.0105 14.2599 56.1042 14.8374 56.2917 15.3615C56.4835 15.8857 56.7754 16.3054 57.1674 16.6207C57.5637 16.9361 58.0623 17.0938 58.6632 17.0938ZM65.3668 18.5V8.68182H67.2013V10.2798H67.3228C67.5273 9.73864 67.8619 9.31676 68.3263 9.0142C68.7908 8.70739 69.3469 8.55398 69.9947 8.55398C70.6509 8.55398 71.2006 8.70739 71.6438 9.0142C72.0913 9.32102 72.4215 9.7429 72.6346 10.2798H72.7369C72.9712 9.75568 73.3441 9.33807 73.8555 9.02699C74.3668 8.71165 74.9762 8.55398 75.6836 8.55398C76.5742 8.55398 77.3008 8.8331 77.8633 9.39134C78.43 9.94957 78.7134 10.7912 78.7134 11.9162V18.5H76.8022V12.0952C76.8022 11.4304 76.6211 10.9489 76.2589 10.6506C75.8967 10.3523 75.4641 10.2031 74.9613 10.2031C74.3391 10.2031 73.8555 10.3949 73.5103 10.7784C73.1651 11.1577 72.9925 11.6456 72.9925 12.2422V18.5H71.0877V11.9737C71.0877 11.4411 70.9215 11.0128 70.5891 10.6889C70.2567 10.3651 69.8242 10.2031 69.2915 10.2031C68.9293 10.2031 68.5948 10.299 68.288 10.4908C67.9854 10.6783 67.7404 10.9403 67.5529 11.277C67.3697 11.6136 67.2781 12.0036 67.2781 12.4467V18.5H65.3668ZM81.275 18.5V8.68182H83.1096V10.2798H83.231C83.4355 9.73864 83.7701 9.31676 84.2346 9.0142C84.699 8.70739 85.2551 8.55398 85.9029 8.55398C86.5591 8.55398 87.1088 8.70739 87.552 9.0142C87.9995 9.32102 88.3297 9.7429 88.5428 10.2798H88.6451C88.8794 9.75568 89.2523 9.33807 89.7637 9.02699C90.275 8.71165 90.8844 8.55398 91.5918 8.55398C92.4824 8.55398 93.209 8.8331 93.7715 9.39134C94.3382 9.94957 94.6216 10.7912 94.6216 11.9162V18.5H92.7104V12.0952C92.7104 11.4304 92.5293 10.9489 92.1671 10.6506C91.8049 10.3523 91.3723 10.2031 90.8695 10.2031C90.2473 10.2031 89.7637 10.3949 89.4185 10.7784C89.0733 11.1577 88.9007 11.6456 88.9007 12.2422V18.5H86.9959V11.9737C86.9959 11.4411 86.8297 11.0128 86.4973 10.6889C86.165 10.3651 85.7324 10.2031 85.1998 10.2031C84.8375 10.2031 84.503 10.299 84.1962 10.4908C83.8936 10.6783 83.6486 10.9403 83.4611 11.277C83.2779 11.6136 83.1863 12.0036 83.1863 12.4467V18.5H81.275ZM103.403 14.4283V8.68182H105.32V18.5H103.441V16.7997H103.339C103.113 17.3239 102.751 17.7607 102.252 18.1101C101.758 18.4553 101.142 18.6278 100.405 18.6278C99.7741 18.6278 99.2159 18.4893 98.7301 18.2124C98.2486 17.9311 97.8693 17.5156 97.5923 16.9659C97.3196 16.4162 97.1832 15.7365 97.1832 14.9268V8.68182H99.0945V14.6967C99.0945 15.3658 99.2798 15.8984 99.6506 16.2947C100.021 16.6911 100.503 16.8892 101.095 16.8892C101.453 16.8892 101.809 16.7997 102.163 16.6207C102.521 16.4418 102.817 16.1712 103.051 15.8089C103.29 15.4467 103.407 14.9865 103.403 14.4283ZM109.8 12.6705V18.5H107.888V8.68182H109.723V10.2798H109.844C110.07 9.75994 110.424 9.34233 110.905 9.02699C111.391 8.71165 112.003 8.55398 112.74 8.55398C113.409 8.55398 113.995 8.6946 114.498 8.97585C115.001 9.25284 115.39 9.66619 115.667 10.2159C115.944 10.7656 116.083 11.4453 116.083 12.255V18.5H114.172V12.4851C114.172 11.7734 113.986 11.2173 113.616 10.8168C113.245 10.4119 112.736 10.2095 112.088 10.2095C111.645 10.2095 111.251 10.3054 110.905 10.4972C110.564 10.6889 110.294 10.9702 110.094 11.3409C109.898 11.7074 109.8 12.1506 109.8 12.6705ZM118.646 18.5V8.68182H120.557V18.5H118.646ZM119.611 7.1669C119.279 7.1669 118.993 7.05611 118.755 6.83452C118.52 6.60866 118.403 6.3402 118.403 6.02912C118.403 5.71378 118.52 5.44531 118.755 5.22372C118.993 4.99787 119.279 4.88494 119.611 4.88494C119.944 4.88494 120.227 4.99787 120.461 5.22372C120.7 5.44531 120.819 5.71378 120.819 6.02912C120.819 6.3402 120.7 6.60866 120.461 6.83452C120.227 7.05611 119.944 7.1669 119.611 7.1669ZM127.712 8.68182V10.2159H122.349V8.68182H127.712ZM123.787 6.32955H125.698V15.6172C125.698 15.9879 125.754 16.267 125.864 16.4545C125.975 16.6378 126.118 16.7635 126.293 16.8317C126.472 16.8956 126.665 16.9276 126.874 16.9276C127.028 16.9276 127.162 16.9169 127.277 16.8956C127.392 16.8743 127.482 16.8572 127.545 16.8445L127.891 18.4233C127.78 18.4659 127.622 18.5085 127.418 18.5511C127.213 18.598 126.957 18.6236 126.651 18.6278C126.148 18.6364 125.679 18.5469 125.244 18.3594C124.81 18.1719 124.458 17.8821 124.19 17.4901C123.921 17.098 123.787 16.6058 123.787 16.0135V6.32955ZM129.826 18.5V8.68182H131.737V18.5H129.826ZM130.791 7.1669C130.459 7.1669 130.173 7.05611 129.934 6.83452C129.7 6.60866 129.583 6.3402 129.583 6.02912C129.583 5.71378 129.7 5.44531 129.934 5.22372C130.173 4.99787 130.459 4.88494 130.791 4.88494C131.123 4.88494 131.407 4.99787 131.641 5.22372C131.88 5.44531 131.999 5.71378 131.999 6.02912C131.999 6.3402 131.88 6.60866 131.641 6.83452C131.407 7.05611 131.123 7.1669 130.791 7.1669ZM138.54 18.6982C137.572 18.6982 136.739 18.4915 136.04 18.0781C135.346 17.6605 134.809 17.0746 134.43 16.3203C134.055 15.5618 133.867 14.6733 133.867 13.6548C133.867 12.6491 134.055 11.7628 134.43 10.9957C134.809 10.2287 135.337 9.62997 136.015 9.19957C136.697 8.76918 137.494 8.55398 138.406 8.55398C138.96 8.55398 139.496 8.6456 140.016 8.82884C140.536 9.01207 141.003 9.29972 141.416 9.69176C141.83 10.0838 142.156 10.593 142.394 11.2195C142.633 11.8416 142.752 12.598 142.752 13.4886V14.1662H134.947V12.7344H140.879C140.879 12.2315 140.777 11.7862 140.572 11.3984C140.368 11.0064 140.08 10.6974 139.71 10.4716C139.343 10.2457 138.913 10.1328 138.418 10.1328C137.881 10.1328 137.413 10.2649 137.012 10.5291C136.616 10.7891 136.309 11.13 136.092 11.5518C135.879 11.9695 135.772 12.4233 135.772 12.9134V14.032C135.772 14.6882 135.887 15.2464 136.117 15.7067C136.352 16.1669 136.678 16.5185 137.095 16.7614C137.513 17 138.001 17.1193 138.559 17.1193C138.921 17.1193 139.251 17.0682 139.55 16.9659C139.848 16.8594 140.106 16.7017 140.323 16.4929C140.54 16.2841 140.707 16.0263 140.822 15.7195L142.631 16.0455C142.486 16.5781 142.226 17.0447 141.851 17.4453C141.48 17.8416 141.013 18.1506 140.451 18.3722C139.893 18.5895 139.256 18.6982 138.54 18.6982ZM152.23 11.0788L150.498 11.3857C150.425 11.1641 150.31 10.9531 150.153 10.7528C149.999 10.5526 149.79 10.3885 149.526 10.2607C149.262 10.1328 148.932 10.0689 148.535 10.0689C147.994 10.0689 147.542 10.1903 147.18 10.4332C146.818 10.6719 146.637 10.9808 146.637 11.3601C146.637 11.6882 146.758 11.9524 147.001 12.1527C147.244 12.353 147.636 12.517 148.177 12.6449L149.737 13.0028C150.64 13.2116 151.314 13.5334 151.757 13.968C152.2 14.4027 152.422 14.9673 152.422 15.6619C152.422 16.25 152.251 16.7741 151.91 17.2344C151.574 17.6903 151.103 18.0483 150.498 18.3082C149.897 18.5682 149.2 18.6982 148.407 18.6982C147.308 18.6982 146.411 18.4638 145.716 17.995C145.022 17.522 144.596 16.8509 144.438 15.9815L146.285 15.7003C146.4 16.1818 146.637 16.5462 146.995 16.7933C147.353 17.0362 147.819 17.1577 148.395 17.1577C149.021 17.1577 149.522 17.0277 149.897 16.7678C150.272 16.5036 150.459 16.1818 150.459 15.8026C150.459 15.4957 150.344 15.2379 150.114 15.0291C149.888 14.8203 149.541 14.6626 149.072 14.5561L147.41 14.1918C146.494 13.983 145.817 13.6506 145.378 13.1946C144.943 12.7386 144.726 12.1612 144.726 11.4624C144.726 10.8828 144.888 10.3757 145.211 9.94105C145.535 9.50639 145.983 9.16761 146.554 8.92472C147.125 8.67756 147.779 8.55398 148.516 8.55398C149.577 8.55398 150.412 8.78409 151.022 9.24432C151.631 9.70028 152.034 10.3118 152.23 11.0788Z" fill="white"/>
</svg>
