<svg width="186" height="24" viewBox="0 0 186 24" fill="none" xmlns="http://www.w3.org/2000/svg">
<path d="M7 7H7.01M12 2H2V12L11.29 21.29C12.23 22.23 13.77 22.23 14.71 21.29L21.29 14.71C22.23 13.77 22.23 12.23 21.29 11.29L12 2Z" stroke="white" stroke-width="1.4" stroke-linecap="round" stroke-linejoin="round"/>
<path d="M40.7926 7.10938V5.40909H50.924V7.10938H46.8395V18.5H44.8707V7.10938H40.7926ZM54.5307 18.7173C53.9086 18.7173 53.3461 18.6023 52.8432 18.3722C52.3404 18.1378 51.9419 17.799 51.6479 17.3558C51.3581 16.9126 51.2132 16.3693 51.2132 15.7259C51.2132 15.1719 51.3198 14.7159 51.5328 14.358C51.7459 14 52.0336 13.7166 52.3958 13.5078C52.758 13.299 53.1628 13.1413 53.6103 13.0348C54.0577 12.9283 54.5137 12.8473 54.9782 12.7919C55.5662 12.7237 56.0435 12.6683 56.41 12.6257C56.7765 12.5788 57.0428 12.5043 57.209 12.402C57.3752 12.2997 57.4583 12.1335 57.4583 11.9034V11.8587C57.4583 11.3004 57.3006 10.8679 56.9853 10.5611C56.6742 10.2543 56.2097 10.1009 55.5918 10.1009C54.9483 10.1009 54.4412 10.2436 54.0705 10.5291C53.704 10.8104 53.4505 11.1236 53.3098 11.4688L51.5137 11.0597C51.7267 10.4631 52.0378 9.98153 52.4469 9.61506C52.8603 9.24432 53.3354 8.97585 53.8723 8.80966C54.4093 8.6392 54.9739 8.55398 55.5662 8.55398C55.9583 8.55398 56.3738 8.60085 56.8127 8.6946C57.2559 8.78409 57.6692 8.95028 58.0527 9.19318C58.4405 9.43608 58.758 9.78338 59.0051 10.2351C59.2523 10.6825 59.3759 11.2642 59.3759 11.9801V18.5H57.5094V17.1577H57.4327C57.3091 17.4048 57.1238 17.6477 56.8766 17.8864C56.6294 18.125 56.312 18.3232 55.9242 18.4808C55.5364 18.6385 55.0719 18.7173 54.5307 18.7173ZM54.9462 17.1832C55.4746 17.1832 55.9263 17.0788 56.3013 16.87C56.6806 16.6612 56.9682 16.3885 57.1642 16.0518C57.3645 15.7109 57.4647 15.3466 57.4647 14.9588V13.6932C57.3965 13.7614 57.2644 13.8253 57.0684 13.8849C56.8766 13.9403 56.6571 13.9893 56.41 14.032C56.1628 14.0703 55.9221 14.1065 55.6877 14.1406C55.4533 14.1705 55.2573 14.196 55.0996 14.2173C54.7289 14.2642 54.3901 14.343 54.0833 14.4538C53.7807 14.5646 53.5378 14.7244 53.3546 14.9332C53.1756 15.1378 53.0861 15.4105 53.0861 15.7514C53.0861 16.2244 53.2608 16.5824 53.6103 16.8253C53.9597 17.0639 54.405 17.1832 54.9462 17.1832ZM66.038 22.3864C65.2582 22.3864 64.587 22.2841 64.0245 22.0795C63.4663 21.875 63.0103 21.6044 62.6566 21.2678C62.3029 20.9311 62.0387 20.5625 61.864 20.1619L63.5067 19.4844C63.6218 19.6719 63.7752 19.87 63.967 20.0788C64.163 20.2919 64.4272 20.473 64.7596 20.6222C65.0962 20.7713 65.5288 20.8459 66.0572 20.8459C66.7816 20.8459 67.3803 20.669 67.8533 20.3153C68.3263 19.9659 68.5629 19.4077 68.5629 18.6406V16.7102H68.4414C68.3263 16.919 68.1602 17.1513 67.9428 17.407C67.7298 17.6626 67.4357 17.8842 67.0607 18.0717C66.6857 18.2592 66.1978 18.353 65.5969 18.353C64.8214 18.353 64.1225 18.1719 63.5004 17.8097C62.8825 17.4432 62.3924 16.9041 62.0302 16.1925C61.6722 15.4766 61.4933 14.5966 61.4933 13.5526C61.4933 12.5085 61.6701 11.6136 62.0238 10.8679C62.3817 10.1222 62.8718 9.55114 63.494 9.15483C64.1161 8.75426 64.8214 8.55398 65.6097 8.55398C66.2191 8.55398 66.7113 8.65625 67.0863 8.8608C67.4613 9.06108 67.7532 9.29545 67.962 9.56392C68.1751 9.83239 68.3391 10.0689 68.4542 10.2734H68.5948V8.68182H70.4677V18.7173C70.4677 19.5611 70.2717 20.2536 69.8796 20.7947C69.4876 21.3359 68.957 21.7365 68.288 21.9964C67.6232 22.2564 66.8732 22.3864 66.038 22.3864ZM66.0188 16.7678C66.5685 16.7678 67.033 16.6399 67.4123 16.3842C67.7958 16.1243 68.0856 15.7536 68.2816 15.272C68.4819 14.7862 68.582 14.2045 68.582 13.527C68.582 12.8665 68.484 12.2848 68.288 11.782C68.092 11.2791 67.8043 10.8871 67.4251 10.6058C67.0458 10.3203 66.5771 10.1776 66.0188 10.1776C65.4435 10.1776 64.9641 10.3267 64.5806 10.625C64.1971 10.919 63.9073 11.3196 63.7113 11.8267C63.5195 12.3338 63.4237 12.9006 63.4237 13.527C63.4237 14.1705 63.5217 14.7351 63.7177 15.2209C63.9137 15.7067 64.2035 16.0859 64.587 16.3587C64.9748 16.6314 65.4521 16.7678 66.0188 16.7678ZM80.3881 11.0788L78.6559 11.3857C78.5835 11.1641 78.4684 10.9531 78.3107 10.7528C78.1573 10.5526 77.9485 10.3885 77.6843 10.2607C77.4201 10.1328 77.0898 10.0689 76.6935 10.0689C76.1523 10.0689 75.7006 10.1903 75.3384 10.4332C74.9762 10.6719 74.7951 10.9808 74.7951 11.3601C74.7951 11.6882 74.9165 11.9524 75.1594 12.1527C75.4023 12.353 75.7944 12.517 76.3356 12.6449L77.8952 13.0028C78.7987 13.2116 79.4719 13.5334 79.9151 13.968C80.3583 14.4027 80.5799 14.9673 80.5799 15.6619C80.5799 16.25 80.4094 16.7741 80.0685 17.2344C79.7319 17.6903 79.261 18.0483 78.6559 18.3082C78.055 18.5682 77.3583 18.6982 76.5657 18.6982C75.4663 18.6982 74.5692 18.4638 73.8746 17.995C73.18 17.522 72.7539 16.8509 72.5962 15.9815L74.4435 15.7003C74.5586 16.1818 74.7951 16.5462 75.1531 16.7933C75.511 17.0362 75.9776 17.1577 76.5529 17.1577C77.1793 17.1577 77.68 17.0277 78.055 16.7678C78.43 16.5036 78.6175 16.1818 78.6175 15.8026C78.6175 15.4957 78.5025 15.2379 78.2724 15.0291C78.0465 14.8203 77.6992 14.6626 77.2305 14.5561L75.5685 14.1918C74.6523 13.983 73.9748 13.6506 73.5359 13.1946C73.1012 12.7386 72.8839 12.1612 72.8839 11.4624C72.8839 10.8828 73.0458 10.3757 73.3697 9.94105C73.6935 9.50639 74.141 9.16761 74.712 8.92472C75.283 8.67756 75.9371 8.55398 76.6744 8.55398C77.7354 8.55398 78.5707 8.78409 79.18 9.24432C79.7894 9.70028 80.1921 10.3118 80.3881 11.0788Z" fill="white"/>
</svg>
