<svg width="186" height="24" viewBox="0 0 186 24" fill="none" xmlns="http://www.w3.org/2000/svg">
<path d="M7.90909 3.59091C7.90909 2.71273 8.62182 2 9.5 2H14.5C15.3782 2 16.0909 2.71273 16.0909 3.59091V5.63636H20.4091C21.2873 5.63636 22 6.34909 22 7.22727V20.4091C22 20.831 21.8324 21.2357 21.534 21.534C21.2357 21.8324 20.831 22 20.4091 22H3.59091C3.16897 22 2.76432 21.8324 2.46597 21.534C2.16761 21.2357 2 20.831 2 20.4091V7.22727C2 6.34909 2.71273 5.63636 3.59091 5.63636H7.90909V3.59091ZM3.36364 12.9V20.4091C3.36364 20.5345 3.46545 20.6364 3.59091 20.6364H20.4091C20.4694 20.6364 20.5272 20.6124 20.5698 20.5698C20.6124 20.5272 20.6364 20.4694 20.6364 20.4091V12.9C19.9388 13.4937 19.0524 13.8193 18.1364 13.8182H5.86364C4.94761 13.8193 4.0612 13.4937 3.36364 12.9ZM20.6364 9.95455V7.22727C20.6364 7.167 20.6124 7.10919 20.5698 7.06657C20.5272 7.02394 20.4694 7 20.4091 7H3.59091C3.53063 7 3.47283 7.02394 3.4302 7.06657C3.38758 7.10919 3.36364 7.167 3.36364 7.22727V9.95455C3.36364 10.6176 3.62703 11.2535 4.09587 11.7223C4.56471 12.1912 5.2006 12.4545 5.86364 12.4545H18.1364C18.7994 12.4545 19.4353 12.1912 19.9041 11.7223C20.373 11.2535 20.6364 10.6176 20.6364 9.95455ZM14.7273 3.59091C14.7273 3.53063 14.7033 3.47283 14.6607 3.4302C14.6181 3.38758 14.5603 3.36364 14.5 3.36364H9.5C9.43972 3.36364 9.38192 3.38758 9.33929 3.4302C9.29667 3.47283 9.27273 3.53063 9.27273 3.59091V5.63636H14.7273V3.59091Z" fill="white"/>
<path d="M41.4382 18.5V5.40909H49.5561V7.10938H43.4134V11.098H48.9744V12.7919H43.4134V18.5H41.4382ZM51.8317 18.5V8.68182H53.7429V18.5H51.8317ZM52.7969 7.1669C52.4645 7.1669 52.179 7.05611 51.9403 6.83452C51.706 6.60866 51.5888 6.3402 51.5888 6.02912C51.5888 5.71378 51.706 5.44531 51.9403 5.22372C52.179 4.99787 52.4645 4.88494 52.7969 4.88494C53.1293 4.88494 53.4126 4.99787 53.647 5.22372C53.8857 5.44531 54.005 5.71378 54.005 6.02912C54.005 6.3402 53.8857 6.60866 53.647 6.83452C53.4126 7.05611 53.1293 7.1669 52.7969 7.1669ZM58.2253 12.6705V18.5H56.3141V8.68182H58.1486V10.2798H58.2701C58.4959 9.75994 58.8496 9.34233 59.3311 9.02699C59.8169 8.71165 60.4284 8.55398 61.1657 8.55398C61.8347 8.55398 62.4206 8.6946 62.9235 8.97585C63.4263 9.25284 63.8162 9.66619 64.0932 10.2159C64.3702 10.7656 64.5087 11.4453 64.5087 12.255V18.5H62.5975V12.4851C62.5975 11.7734 62.4121 11.2173 62.0414 10.8168C61.6706 10.4119 61.1614 10.2095 60.5137 10.2095C60.0705 10.2095 59.6763 10.3054 59.3311 10.4972C58.9902 10.6889 58.7196 10.9702 58.5194 11.3409C58.3233 11.7074 58.2253 12.1506 58.2253 12.6705ZM70.7473 18.6918C69.9547 18.6918 69.2473 18.4893 68.6252 18.0845C68.0073 17.6754 67.5215 17.0937 67.1678 16.3395C66.8184 15.581 66.6436 14.6712 66.6436 13.6101C66.6436 12.549 66.8205 11.6413 67.1742 10.8871C67.5321 10.1328 68.0222 9.5554 68.6444 9.15483C69.2665 8.75426 69.9718 8.55398 70.7601 8.55398C71.3695 8.55398 71.8596 8.65625 72.2303 8.8608C72.6053 9.06108 72.8951 9.29545 73.0996 9.56392C73.3084 9.83239 73.4703 10.0689 73.5854 10.2734H73.7005V5.40909H75.6117V18.5H73.7452V16.9723H73.5854C73.4703 17.1811 73.3042 17.4197 73.0868 17.6882C72.8738 17.9567 72.5797 18.1911 72.2047 18.3913C71.8297 18.5916 71.3439 18.6918 70.7473 18.6918ZM71.1692 17.0618C71.7189 17.0618 72.1834 16.9169 72.5627 16.6271C72.9462 16.3331 73.236 15.9261 73.432 15.4062C73.6323 14.8864 73.7324 14.2812 73.7324 13.5909C73.7324 12.9091 73.6344 12.3125 73.4384 11.8011C73.2424 11.2898 72.9547 10.8913 72.5755 10.6058C72.1962 10.3203 71.7275 10.1776 71.1692 10.1776C70.5939 10.1776 70.1145 10.3267 69.731 10.625C69.3475 10.9233 69.0577 11.3303 68.8617 11.8459C68.6699 12.3615 68.574 12.9432 68.574 13.5909C68.574 14.2472 68.6721 14.8374 68.8681 15.3615C69.0641 15.8857 69.3539 16.3011 69.7374 16.608C70.1252 16.9105 70.6025 17.0618 71.1692 17.0618ZM88.3446 5.40909H90.3134V14.6903C90.3134 15.5298 90.1472 16.2479 89.8148 16.8445C89.4867 17.4411 89.0243 17.897 88.4277 18.2124C87.8311 18.5234 87.1323 18.679 86.3311 18.679C85.5939 18.679 84.9313 18.5447 84.3432 18.2763C83.7594 18.0078 83.2971 17.6179 82.9561 17.1065C82.6195 16.5909 82.4512 15.9645 82.4512 15.2273H84.4135C84.4135 15.5895 84.4966 15.9027 84.6628 16.1669C84.8333 16.4311 85.0655 16.6378 85.3596 16.7869C85.6578 16.9318 85.9988 17.0043 86.3823 17.0043C86.7999 17.0043 87.1536 16.9169 87.4434 16.7422C87.7374 16.5632 87.9611 16.3011 88.1145 15.956C88.2679 15.6108 88.3446 15.1889 88.3446 14.6903V5.40909ZM97.1705 18.6982C96.25 18.6982 95.4467 18.4872 94.7607 18.0653C94.0746 17.6435 93.5419 17.0533 93.1626 16.2947C92.7834 15.5362 92.5938 14.6499 92.5938 13.6357C92.5938 12.6172 92.7834 11.7266 93.1626 10.9638C93.5419 10.201 94.0746 9.60866 94.7607 9.18679C95.4467 8.76491 96.25 8.55398 97.1705 8.55398C98.0909 8.55398 98.8942 8.76491 99.5803 9.18679C100.266 9.60866 100.799 10.201 101.178 10.9638C101.558 11.7266 101.747 12.6172 101.747 13.6357C101.747 14.6499 101.558 15.5362 101.178 16.2947C100.799 17.0533 100.266 17.6435 99.5803 18.0653C98.8942 18.4872 98.0909 18.6982 97.1705 18.6982ZM97.1768 17.0938C97.7734 17.0938 98.2678 16.9361 98.6598 16.6207C99.0518 16.3054 99.3416 15.8857 99.5291 15.3615C99.7209 14.8374 99.8168 14.2599 99.8168 13.6293C99.8168 13.0028 99.7209 12.4276 99.5291 11.9034C99.3416 11.375 99.0518 10.951 98.6598 10.6314C98.2678 10.3118 97.7734 10.152 97.1768 10.152C96.576 10.152 96.0774 10.3118 95.6811 10.6314C95.2891 10.951 94.9972 11.375 94.8054 11.9034C94.6179 12.4276 94.5241 13.0028 94.5241 13.6293C94.5241 14.2599 94.6179 14.8374 94.8054 15.3615C94.9972 15.8857 95.2891 16.3054 95.6811 16.6207C96.0774 16.9361 96.576 17.0938 97.1768 17.0938ZM104.034 18.5V5.40909H105.945V10.2734H106.06C106.171 10.0689 106.331 9.83239 106.54 9.56392C106.748 9.29545 107.038 9.06108 107.409 8.8608C107.78 8.65625 108.27 8.55398 108.879 8.55398C109.672 8.55398 110.379 8.75426 111.001 9.15483C111.623 9.5554 112.111 10.1328 112.465 10.8871C112.823 11.6413 113.002 12.549 113.002 13.6101C113.002 14.6712 112.825 15.581 112.471 16.3395C112.118 17.0937 111.632 17.6754 111.014 18.0845C110.396 18.4893 109.691 18.6918 108.898 18.6918C108.302 18.6918 107.814 18.5916 107.434 18.3913C107.059 18.1911 106.765 17.9567 106.552 17.6882C106.339 17.4197 106.175 17.1811 106.06 16.9723H105.9V18.5H104.034ZM105.907 13.5909C105.907 14.2812 106.007 14.8864 106.207 15.4062C106.407 15.9261 106.697 16.3331 107.077 16.6271C107.456 16.9169 107.92 17.0618 108.47 17.0618C109.041 17.0618 109.518 16.9105 109.902 16.608C110.285 16.3011 110.575 15.8857 110.771 15.3615C110.971 14.8374 111.072 14.2472 111.072 13.5909C111.072 12.9432 110.974 12.3615 110.778 11.8459C110.586 11.3303 110.296 10.9233 109.908 10.625C109.525 10.3267 109.045 10.1776 108.47 10.1776C107.916 10.1776 107.447 10.3203 107.064 10.6058C106.684 10.8913 106.397 11.2898 106.201 11.8011C106.005 12.3125 105.907 12.9091 105.907 13.5909ZM122.505 11.0788L120.773 11.3857C120.701 11.1641 120.586 10.9531 120.428 10.7528C120.275 10.5526 120.066 10.3885 119.801 10.2607C119.537 10.1328 119.207 10.0689 118.811 10.0689C118.27 10.0689 117.818 10.1903 117.456 10.4332C117.093 10.6719 116.912 10.9808 116.912 11.3601C116.912 11.6882 117.034 11.9524 117.277 12.1527C117.52 12.353 117.912 12.517 118.453 12.6449L120.012 13.0028C120.916 13.2116 121.589 13.5334 122.032 13.968C122.475 14.4027 122.697 14.9673 122.697 15.6619C122.697 16.25 122.527 16.7741 122.186 17.2344C121.849 17.6903 121.378 18.0483 120.773 18.3082C120.172 18.5682 119.475 18.6982 118.683 18.6982C117.583 18.6982 116.686 18.4638 115.992 17.995C115.297 17.522 114.871 16.8509 114.713 15.9815L116.561 15.7003C116.676 16.1818 116.912 16.5462 117.27 16.7933C117.628 17.0362 118.095 17.1577 118.67 17.1577C119.297 17.1577 119.797 17.0277 120.172 16.7678C120.547 16.5036 120.735 16.1818 120.735 15.8026C120.735 15.4957 120.62 15.2379 120.39 15.0291C120.164 14.8203 119.816 14.6626 119.348 14.5561L117.686 14.1918C116.77 13.983 116.092 13.6506 115.653 13.1946C115.218 12.7386 115.001 12.1612 115.001 11.4624C115.001 10.8828 115.163 10.3757 115.487 9.94105C115.811 9.50639 116.258 9.16761 116.829 8.92472C117.4 8.67756 118.054 8.55398 118.792 8.55398C119.853 8.55398 120.688 8.78409 121.297 9.24432C121.907 9.70028 122.309 10.3118 122.505 11.0788Z" fill="white"/>
</svg>
