<svg width="218" height="56" viewBox="0 0 218 56" fill="none" xmlns="http://www.w3.org/2000/svg">
<path d="M27.5228 34.583L21.0236 38.0001L22.2651 30.7627L17 25.6376L24.2658 24.5846L27.5155 18.0001L30.7651 24.5846L38.0309 25.6376L32.7658 30.7627L34.0073 38.0001L27.5228 34.583Z" stroke="white" stroke-width="1.2" stroke-linecap="round" stroke-linejoin="round"/>
<path d="M68.3111 25.6662H66.3168C66.2401 25.2401 66.0973 24.8651 65.8885 24.5412C65.6797 24.2173 65.424 23.9425 65.1214 23.7166C64.8189 23.4908 64.4801 23.3203 64.1051 23.2053C63.7344 23.0902 63.3402 23.0327 62.9226 23.0327C62.1683 23.0327 61.4929 23.2223 60.8963 23.6016C60.304 23.9808 59.8352 24.5369 59.4901 25.2699C59.1491 26.0028 58.9787 26.8977 58.9787 27.9545C58.9787 29.0199 59.1491 29.919 59.4901 30.652C59.8352 31.3849 60.3061 31.9389 60.9027 32.3139C61.4993 32.6889 62.1705 32.8764 62.9162 32.8764C63.3295 32.8764 63.7216 32.821 64.0923 32.7102C64.4673 32.5952 64.8061 32.4268 65.1087 32.2053C65.4112 31.9837 65.6669 31.7131 65.8757 31.3935C66.0888 31.0696 66.2358 30.6989 66.3168 30.2812L68.3111 30.2876C68.2045 30.9311 67.9979 31.5234 67.6911 32.0646C67.3885 32.6016 66.9986 33.0661 66.5213 33.4581C66.0483 33.8459 65.5071 34.1463 64.8977 34.3594C64.2884 34.5724 63.6236 34.679 62.9034 34.679C61.7699 34.679 60.7599 34.4105 59.8736 33.8736C58.9872 33.3324 58.2884 32.5589 57.777 31.5533C57.2699 30.5476 57.0163 29.348 57.0163 27.9545C57.0163 26.5568 57.272 25.3572 57.7834 24.3558C58.2947 23.3501 58.9936 22.5788 59.88 22.0419C60.7663 21.5007 61.7741 21.2301 62.9034 21.2301C63.598 21.2301 64.2457 21.3303 64.8466 21.5305C65.4517 21.7266 65.995 22.0163 66.4766 22.3999C66.9581 22.7791 67.3565 23.2436 67.6719 23.7933C67.9872 24.3388 68.2003 24.9631 68.3111 25.6662ZM74.6568 34.6982C73.7363 34.6982 72.9331 34.4872 72.247 34.0653C71.5609 33.6435 71.0282 33.0533 70.649 32.2947C70.2697 31.5362 70.0801 30.6499 70.0801 29.6357C70.0801 28.6172 70.2697 27.7266 70.649 26.9638C71.0282 26.201 71.5609 25.6087 72.247 25.1868C72.9331 24.7649 73.7363 24.554 74.6568 24.554C75.5772 24.554 76.3805 24.7649 77.0666 25.1868C77.7527 25.6087 78.2853 26.201 78.6646 26.9638C79.0439 27.7266 79.2335 28.6172 79.2335 29.6357C79.2335 30.6499 79.0439 31.5362 78.6646 32.2947C78.2853 33.0533 77.7527 33.6435 77.0666 34.0653C76.3805 34.4872 75.5772 34.6982 74.6568 34.6982ZM74.6632 33.0938C75.2598 33.0938 75.7541 32.9361 76.1461 32.6207C76.5382 32.3054 76.8279 31.8857 77.0154 31.3615C77.2072 30.8374 77.3031 30.2599 77.3031 29.6293C77.3031 29.0028 77.2072 28.4276 77.0154 27.9034C76.8279 27.375 76.5382 26.951 76.1461 26.6314C75.7541 26.3118 75.2598 26.152 74.6632 26.152C74.0623 26.152 73.5637 26.3118 73.1674 26.6314C72.7754 26.951 72.4835 27.375 72.2917 27.9034C72.1042 28.4276 72.0105 29.0028 72.0105 29.6293C72.0105 30.2599 72.1042 30.8374 72.2917 31.3615C72.4835 31.8857 72.7754 32.3054 73.1674 32.6207C73.5637 32.9361 74.0623 33.0938 74.6632 33.0938ZM83.2781 21.4091V34.5H81.3668V21.4091H83.2781ZM87.7605 21.4091V34.5H85.8493V21.4091H87.7605ZM94.5632 34.6982C93.5959 34.6982 92.7628 34.4915 92.0639 34.0781C91.3693 33.6605 90.8324 33.0746 90.4531 32.3203C90.0781 31.5618 89.8906 30.6733 89.8906 29.6548C89.8906 28.6491 90.0781 27.7628 90.4531 26.9957C90.8324 26.2287 91.3608 25.63 92.0384 25.1996C92.7202 24.7692 93.517 24.554 94.429 24.554C94.983 24.554 95.5199 24.6456 96.0398 24.8288C96.5597 25.0121 97.0263 25.2997 97.4396 25.6918C97.853 26.0838 98.179 26.593 98.4176 27.2195C98.6563 27.8416 98.7756 28.598 98.7756 29.4886V30.1662H90.9709V28.7344H96.9027C96.9027 28.2315 96.8004 27.7862 96.5959 27.3984C96.3913 27.0064 96.1037 26.6974 95.733 26.4716C95.3665 26.2457 94.9361 26.1328 94.4418 26.1328C93.9048 26.1328 93.4361 26.2649 93.0355 26.5291C92.6392 26.7891 92.3324 27.13 92.1151 27.5518C91.902 27.9695 91.7955 28.4233 91.7955 28.9134V30.032C91.7955 30.6882 91.9105 31.2464 92.1406 31.7067C92.375 32.1669 92.701 32.5185 93.1186 32.7614C93.5362 33 94.0241 33.1193 94.5824 33.1193C94.9446 33.1193 95.2749 33.0682 95.5732 32.9659C95.8714 32.8594 96.1293 32.7017 96.3466 32.4929C96.5639 32.2841 96.7301 32.0263 96.8452 31.7195L98.6541 32.0455C98.5092 32.5781 98.2493 33.0447 97.8743 33.4453C97.5036 33.8416 97.0369 34.1506 96.4744 34.3722C95.9162 34.5895 95.2791 34.6982 94.5632 34.6982ZM105.032 34.6982C104.081 34.6982 103.263 34.483 102.577 34.0526C101.895 33.6179 101.371 33.0192 101.005 32.2564C100.638 31.4936 100.455 30.62 100.455 29.6357C100.455 28.6385 100.643 27.7585 101.018 26.9957C101.393 26.2287 101.921 25.63 102.603 25.1996C103.285 24.7692 104.088 24.554 105.013 24.554C105.758 24.554 106.423 24.6925 107.007 24.9695C107.591 25.2422 108.062 25.6257 108.42 26.12C108.782 26.6143 108.997 27.1918 109.065 27.8523H107.205C107.103 27.392 106.868 26.9957 106.502 26.6634C106.14 26.331 105.654 26.1648 105.045 26.1648C104.512 26.1648 104.045 26.3054 103.645 26.5866C103.248 26.8636 102.939 27.2599 102.718 27.7756C102.496 28.2869 102.385 28.892 102.385 29.5909C102.385 30.3068 102.494 30.9247 102.711 31.4446C102.929 31.9645 103.236 32.3672 103.632 32.6527C104.032 32.9382 104.503 33.081 105.045 33.081C105.407 33.081 105.735 33.0149 106.029 32.8828C106.327 32.7464 106.577 32.5526 106.777 32.3011C106.981 32.0497 107.124 31.7472 107.205 31.3935H109.065C108.997 32.0284 108.79 32.5952 108.445 33.0938C108.1 33.5923 107.638 33.9844 107.058 34.2699C106.483 34.5554 105.807 34.6982 105.032 34.6982ZM115.692 24.6818V26.2159H110.329V24.6818H115.692ZM111.767 22.3295H113.679V31.6172C113.679 31.9879 113.734 32.267 113.845 32.4545C113.956 32.6378 114.098 32.7635 114.273 32.8317C114.452 32.8956 114.646 32.9276 114.855 32.9276C115.008 32.9276 115.142 32.9169 115.257 32.8956C115.373 32.8743 115.462 32.8572 115.526 32.8445L115.871 34.4233C115.76 34.4659 115.603 34.5085 115.398 34.5511C115.194 34.598 114.938 34.6236 114.631 34.6278C114.128 34.6364 113.659 34.5469 113.225 34.3594C112.79 34.1719 112.439 33.8821 112.17 33.4901C111.902 33.098 111.767 32.6058 111.767 32.0135V22.3295ZM117.806 34.5V24.6818H119.718V34.5H117.806ZM118.771 23.1669C118.439 23.1669 118.154 23.0561 117.915 22.8345C117.681 22.6087 117.563 22.3402 117.563 22.0291C117.563 21.7138 117.681 21.4453 117.915 21.2237C118.154 20.9979 118.439 20.8849 118.771 20.8849C119.104 20.8849 119.387 20.9979 119.622 21.2237C119.86 21.4453 119.98 21.7138 119.98 22.0291C119.98 22.3402 119.86 22.6087 119.622 22.8345C119.387 23.0561 119.104 23.1669 118.771 23.1669ZM126.424 34.6982C125.504 34.6982 124.701 34.4872 124.015 34.0653C123.328 33.6435 122.796 33.0533 122.417 32.2947C122.037 31.5362 121.848 30.6499 121.848 29.6357C121.848 28.6172 122.037 27.7266 122.417 26.9638C122.796 26.201 123.328 25.6087 124.015 25.1868C124.701 24.7649 125.504 24.554 126.424 24.554C127.345 24.554 128.148 24.7649 128.834 25.1868C129.52 25.6087 130.053 26.201 130.432 26.9638C130.811 27.7266 131.001 28.6172 131.001 29.6357C131.001 30.6499 130.811 31.5362 130.432 32.2947C130.053 33.0533 129.52 33.6435 128.834 34.0653C128.148 34.4872 127.345 34.6982 126.424 34.6982ZM126.431 33.0938C127.027 33.0938 127.522 32.9361 127.914 32.6207C128.306 32.3054 128.596 31.8857 128.783 31.3615C128.975 30.8374 129.071 30.2599 129.071 29.6293C129.071 29.0028 128.975 28.4276 128.783 27.9034C128.596 27.375 128.306 26.951 127.914 26.6314C127.522 26.3118 127.027 26.152 126.431 26.152C125.83 26.152 125.331 26.3118 124.935 26.6314C124.543 26.951 124.251 27.375 124.059 27.9034C123.872 28.4276 123.778 29.0028 123.778 29.6293C123.778 30.2599 123.872 30.8374 124.059 31.3615C124.251 31.8857 124.543 32.3054 124.935 32.6207C125.331 32.9361 125.83 33.0938 126.431 33.0938ZM135.046 28.6705V34.5H133.134V24.6818H134.969V26.2798H135.09C135.316 25.7599 135.67 25.3423 136.151 25.027C136.637 24.7116 137.249 24.554 137.986 24.554C138.655 24.554 139.241 24.6946 139.744 24.9759C140.247 25.2528 140.637 25.6662 140.914 26.2159C141.191 26.7656 141.329 27.4453 141.329 28.255V34.5H139.418V28.4851C139.418 27.7734 139.232 27.2173 138.862 26.8168C138.491 26.4119 137.982 26.2095 137.334 26.2095C136.891 26.2095 136.497 26.3054 136.151 26.4972C135.811 26.6889 135.54 26.9702 135.34 27.3409C135.144 27.7074 135.046 28.1506 135.046 28.6705ZM151.249 27.0788L149.517 27.3857C149.445 27.1641 149.33 26.9531 149.172 26.7528C149.019 26.5526 148.81 26.3885 148.546 26.2607C148.281 26.1328 147.951 26.0689 147.555 26.0689C147.014 26.0689 146.562 26.1903 146.2 26.4332C145.838 26.6719 145.656 26.9808 145.656 27.3601C145.656 27.6882 145.778 27.9524 146.021 28.1527C146.264 28.353 146.656 28.517 147.197 28.6449L148.757 29.0028C149.66 29.2116 150.333 29.5334 150.776 29.968C151.22 30.4027 151.441 30.9673 151.441 31.6619C151.441 32.25 151.271 32.7741 150.93 33.2344C150.593 33.6903 150.122 34.0483 149.517 34.3082C148.916 34.5682 148.22 34.6982 147.427 34.6982C146.328 34.6982 145.431 34.4638 144.736 33.995C144.041 33.522 143.615 32.8509 143.458 31.9815L145.305 31.7003C145.42 32.1818 145.656 32.5462 146.014 32.7933C146.372 33.0362 146.839 33.1577 147.414 33.1577C148.041 33.1577 148.541 33.0277 148.916 32.7678C149.291 32.5036 149.479 32.1818 149.479 31.8026C149.479 31.4957 149.364 31.2379 149.134 31.0291C148.908 30.8203 148.561 30.6626 148.092 30.5561L146.43 30.1918C145.514 29.983 144.836 29.6506 144.397 29.1946C143.963 28.7386 143.745 28.1612 143.745 27.4624C143.745 26.8828 143.907 26.3757 144.231 25.9411C144.555 25.5064 145.002 25.1676 145.573 24.9247C146.144 24.6776 146.798 24.554 147.536 24.554C148.597 24.554 149.432 24.7841 150.041 25.2443C150.651 25.7003 151.053 26.3118 151.249 27.0788Z" fill="white"/>
</svg>
